<?xml version="1.0" encoding="UTF-8"?>
<svg id="Layer_2" data-name="Layer 2" xmlns="http://www.w3.org/2000/svg" viewBox="0 0 243.67 243.87">
  <defs>
    <style>
      .cls-1 {
        fill: #231f20;
      }

      .cls-2 {
        fill: none;
      }

      .cls-3 {
        fill: #d1d3d4;
      }

      .cls-4 {
        fill: #f37421;
      }
    </style>
  </defs>
  <g id="Layer_1-2" data-name="Layer 1">
    <g>
      <path class="cls-4" d="M53.58,101.78h27.08c20.06,0,31.7,13.08,31.7,31.76s-11.33,33.19-31.99,33.19h-26.79v-64.95ZM72.07,152.95h7.08c10.03,0,14.13-7.24,14.13-19.41,0-10.75-3.83-17.98-13.91-17.98h-7.3v37.39Z"/>
      <path class="cls-1" d="M80.37,168.7h-28.7v-68.88h28.99c20.42,0,33.61,13.24,33.61,33.73s-13.62,35.16-33.89,35.16ZM55.48,164.77h24.89c18.27,0,30.08-12.26,30.08-31.23s-11.42-29.8-29.79-29.8h-25.17v61.02ZM79.14,154.91h-8.98v-41.32h9.2c7.22,0,15.82,3.46,15.82,19.94,0,17.67-8.72,21.37-16.04,21.37ZM73.97,150.99h5.17c5.25,0,12.23-1.81,12.23-17.44,0-10.77-3.93-16.01-12.01-16.01h-5.39v33.46Z"/>
    </g>
    <g>
      <circle class="cls-2" cx="121.73" cy="121.94" r="93.03"/>
      <path class="cls-3" d="M7.82,95.54l3.13-9.56c2.32-7.08,8.15-9.72,14.55-7.62,6.42,2.1,10.06,7.73,7.67,15.02l-3.1,9.46-22.25-7.29ZM27.49,94.76l.82-2.5c1.16-3.54-.85-5.8-5.01-7.17-3.68-1.21-6.6-.67-7.77,2.89l-.84,2.58,12.8,4.2Z"/>
      <path class="cls-3" d="M47.56,47.02c5.16,4.16,6.97,10.74,1.94,16.98-4.94,6.13-11.62,5.64-16.78,1.48-5.25-4.23-6.85-10.88-1.92-17,4.63-5.75,11.3-5.87,16.75-1.47ZM37.08,59.91c3.35,2.7,6.57,3.46,8.7.82,2.24-2.78.5-5.68-2.6-8.19-3.33-2.68-6.42-3.57-8.67-.78-2.09,2.6-.83,5.41,2.57,8.15Z"/>
      <path class="cls-3" d="M65.44,47.11l-11.88-20.18,7.08-4.16c4.8,3.29,11.48,7.62,13.79,9.61l.1-.06c-1.46-1.96-3.61-5.5-5.5-8.71l-2.53-4.29,5.39-3.17,11.88,20.18-6.74,3.97c-3.86-2.65-11.97-8.07-14.48-10.17l-.08.05c1.3,1.79,3.62,5.68,5.71,9.23l2.67,4.53-5.41,3.18Z"/>
      <path class="cls-3" d="M96.89,13.31l-6.57,1.29-.98-4.99,19.83-3.88.98,4.99-6.51,1.27,3.52,17.99-6.74,1.32-3.52-17.99Z"/>
      <path class="cls-3" d="M149.98,14.15l-6.42-1.89,1.44-4.88,19.37,5.71-1.44,4.88-6.36-1.88-5.18,17.58-6.59-1.94,5.18-17.58Z"/>
      <path class="cls-3" d="M186.86,42.29l-8.8-6.02-2.48,3.62,9.83,6.72-3.5,3.76-14.64-10.02,13.22-19.33,14.63,10-2.87,4.2-9.18-6.28-2.13,3.11,8.8,6.02-2.87,4.2Z"/>
      <path class="cls-3" d="M208.75,44.16l4.23,5.43-14.46,11.27,6.79,8.71-4.47,2.54-10.56-13.55,18.47-14.4Z"/>
      <path class="cls-3" d="M228.1,73.85l2.4,6.45-17.18,6.4,3.85,10.34-5.02,1.08-6-16.09,21.94-8.18Z"/>
      <path class="cls-3" d="M232.67,132.25l.81-6.64,5.05.62-2.46,20.05-5.05-.62.81-6.59-18.2-2.23.84-6.82,18.2,2.23Z"/>
      <path class="cls-3" d="M230.89,163.88l-3.04,6.18-7.86-3.87-3.15,6.42,7.86,3.86-3.04,6.19-21.02-10.33,3.04-6.19,8.59,4.22,3.15-6.42-8.59-4.22,3.04-6.18,21.02,10.33Z"/>
      <path class="cls-3" d="M187.37,201.17l7.6-7.49-3.08-3.13-8.48,8.36-3.02-4.16,12.64-12.46,16.44,16.68-12.62,12.44-3.57-3.62,7.92-7.8-2.65-2.69-7.6,7.49-3.57-3.62Z"/>
      <path class="cls-3" d="M137.8,226.15c-1.74-6.39.66-12.78,8.4-14.88,7.6-2.06,12.71,2.25,14.45,8.64,1.77,6.5-.84,12.82-8.43,14.88-7.12,1.93-12.59-1.88-14.43-8.64ZM153.85,221.87c-1.13-4.15-3.29-6.66-6.56-5.77-3.44.94-3.74,4.31-2.7,8.16,1.12,4.12,3.1,6.65,6.56,5.71,3.22-.87,3.85-3.9,2.7-8.1Z"/>
      <path class="cls-3" d="M117.77,233.28l6.68.44-.33,5.07-20.15-1.31.33-5.07,6.62.43,1.19-18.29,6.85.45-1.19,18.29Z"/>
      <path class="cls-3" d="M86.08,233.32l-6.34-2.68,3.41-8.07-6.59-2.78-3.41,8.07-6.35-2.68,9.11-21.57,6.35,2.68-3.72,8.82,6.59,2.78,3.72-8.82,6.34,2.68-9.11,21.58Z"/>
      <path class="cls-3" d="M46.37,191.98l7.9,7.16,2.95-3.25-8.82-7.99,3.98-3.25,13.15,11.91-15.72,17.35-13.13-11.9,3.41-3.77,8.24,7.46,2.53-2.79-7.9-7.16,3.41-3.77Z"/>
      <path class="cls-3" d="M34.15,174.08l7.71-4.33,3.26,5.81-20.42,11.46-5.68-10.12c-2.7-4.81-1.43-8.58,1.65-10.31,2.82-1.58,5.19-.74,6.56.35-.27-1.54.32-3.68,3.77-5.62l.85-.48c1.27-.71,2.9-1.68,3.65-2.4l3.2,5.7c-.69.84-2.12,1.76-4.21,2.94l-.53.3c-1.76.99-2.49,1.95-1.01,4.59l1.18,2.11ZM29.98,176.42l-1.55-2.77c-1.12-1.99-2.36-2.25-3.73-1.48-1.36.77-1.68,2.08-.65,3.91l1.57,2.8,4.36-2.45Z"/>
      <path class="cls-3" d="M23.83,143.33c1.94-.74,2.54-2.3,2.15-4.48-.36-2.04-1.25-2.86-2.59-2.62-1.52.27-1.91,1.39-2.13,5.19-.44,7.1-2.68,8.89-5.78,9.45-3.87.69-7.62-1.58-8.76-7.99-1.19-6.67,1.71-10,5.29-10.97l1.16,6.53c-1.21.4-2.35,1.26-1.92,3.65.28,1.55,1.03,2.39,2.28,2.17,1.25-.22,1.58-1.15,1.82-4.86.51-7.42,2.82-9.29,6.09-9.87,4.33-.77,7.93,2.03,9.14,8.8,1.14,6.38-1.24,10.28-5.58,11.58l-1.17-6.57Z"/>
    </g>
    <g>
      <path class="cls-4" d="M76.68,60.41v10.18h18.57v61.48h15.13v-61.48h18.4v-10.18h-52.1Z"/>
      <path class="cls-2" d="M76.68,60.41v10.18h18.57v45.48h15.13v-45.48h18.4v-10.18h-52.1ZM76.68,60.41v10.18h18.57v45.48h15.13v-45.48h18.4v-10.18h-52.1Z"/>
      <polygon class="cls-1" points="132.71 56.48 132.71 74.52 114.31 74.52 114.31 132.36 110.38 132.36 110.38 70.59 128.78 70.59 128.78 60.41 76.68 60.41 76.68 70.59 95.25 70.59 95.25 132.36 91.32 132.36 91.32 74.52 72.75 74.52 72.75 56.48 132.71 56.48"/>
    </g>
    <g>
      <path class="cls-4" d="M114.26,74.49v10.18h18.57v61.48h15.13v-61.48h18.4v-10.18h-52.1Z"/>
      <path class="cls-2" d="M114.26,74.49v10.18h18.57v45.48h15.13v-45.48h18.4v-10.18h-52.1ZM114.26,74.49v10.18h18.57v45.48h15.13v-45.48h18.4v-10.18h-52.1Z"/>
      <polygon class="cls-1" points="170.29 70.56 170.29 88.6 151.89 88.6 151.89 146.44 147.96 146.44 147.96 84.67 166.36 84.67 166.36 74.49 114.26 74.49 114.26 84.67 132.83 84.67 132.83 146.44 128.9 146.44 128.9 88.6 110.33 88.6 110.33 70.56 170.29 70.56"/>
    </g>
    <g>
      <path class="cls-4" d="M195.08,147.04c0,18.37-10.84,33.74-32.63,33.74s-31.74-15.27-31.74-33.65,11.34-33.72,32.7-33.72c20.05,0,31.68,14.2,31.68,33.63ZM149.93,146.85c0,11.92,3.88,20.22,13.11,20.22,9.69,0,12.89-8.8,12.89-19.87,0-11.85-3.39-20.07-13.13-20.07-9.06,0-12.86,7.63-12.86,19.72Z"/>
      <path class="cls-1" d="M162.45,182.74c-20.45,0-33.67-13.98-33.67-35.62s13.91-35.68,34.63-35.68,33.6,14.3,33.6,35.59-13.57,35.71-34.56,35.71ZM163.4,115.37c-18.7,0-30.78,12.46-30.78,31.75,0,15.32,7.83,31.69,29.82,31.69,18.66,0,30.71-12.47,30.71-31.78s-11.68-31.66-29.75-31.66ZM163.03,169.03c-9.69,0-15.03-7.88-15.03-22.19,0-17.92,8.04-21.69,14.79-21.69,9.99,0,15.06,7.41,15.06,22.04,0,18.05-8.06,21.84-14.81,21.84ZM162.79,129.09c-2.71,0-10.94,0-10.94,17.76,0,8.33,1.94,18.26,11.18,18.26,7.27,0,10.96-6.03,10.96-17.91,0-16.23-6.4-18.11-11.21-18.11Z"/>
    </g>
  </g>
</svg>